<svg width="34" height="34" viewBox="0 0 34 34" fill="none" xmlns="http://www.w3.org/2000/svg">
<g id="uil:message">
<path id="Vector" d="M28.8146 13.2037L8.98129 3.28701C8.19856 2.89744 7.31474 2.75875 6.45032 2.88985C5.58589 3.02095 4.78293 3.41546 4.15092 4.01959C3.51891 4.62372 3.08859 5.40808 2.91865 6.26571C2.74871 7.12334 2.8474 8.01252 3.20128 8.81201L6.60128 16.4195C6.67843 16.6034 6.71816 16.8009 6.71816 17.0003C6.71816 17.1998 6.67843 17.3973 6.60128 17.5812L3.20128 25.1887C2.91328 25.8357 2.79152 26.5444 2.84709 27.2504C2.90265 27.9565 3.13377 28.6374 3.51944 29.2314C3.90512 29.8254 4.43311 30.3136 5.05545 30.6517C5.67779 30.9897 6.37473 31.1668 7.08295 31.167C7.74628 31.1604 8.39973 31.0055 8.99545 30.7137L28.8288 20.797C29.5323 20.4431 30.1236 19.9007 30.5368 19.2303C30.9501 18.5599 31.1689 17.7879 31.1689 17.0003C31.1689 16.2128 30.9501 15.4408 30.5368 14.7704C30.1236 14.1 29.5323 13.5576 28.8288 13.2037H28.8146ZM27.5538 18.2612L7.72045 28.1778C7.46001 28.3029 7.16757 28.3453 6.88233 28.2995C6.59709 28.2536 6.3327 28.1216 6.12459 27.9212C5.91649 27.7208 5.77463 27.4616 5.71804 27.1783C5.66144 26.895 5.69281 26.6011 5.80795 26.3362L9.19378 18.7287C9.23761 18.6271 9.27546 18.523 9.30712 18.417H19.068C19.4437 18.417 19.804 18.2678 20.0697 18.0021C20.3354 17.7364 20.4846 17.3761 20.4846 17.0003C20.4846 16.6246 20.3354 16.2643 20.0697 15.9986C19.804 15.7329 19.4437 15.5837 19.068 15.5837H9.30712C9.27546 15.4777 9.23761 15.3736 9.19378 15.272L5.80795 7.66451C5.69281 7.39954 5.66144 7.10571 5.71804 6.8224C5.77463 6.5391 5.91649 6.27987 6.12459 6.07947C6.3327 5.87908 6.59709 5.7471 6.88233 5.70123C7.16757 5.65536 7.46001 5.69779 7.72045 5.82284L27.5538 15.7395C27.7858 15.8584 27.9806 16.039 28.1166 16.2615C28.2526 16.4839 28.3245 16.7396 28.3245 17.0003C28.3245 17.2611 28.2526 17.5168 28.1166 17.7392C27.9806 17.9617 27.7858 18.1423 27.5538 18.2612Z" fill="#002660"/>
</g>
</svg>
